<mxfile host="app.diagrams.net" agent="Mozilla/5.0 (Windows NT 10.0; Win64; x64) AppleWebKit/537.36 (KHTML, like Gecko) Chrome/130.0.0.0 Safari/537.36" version="24.8.3">
  <diagram name="Página-1" id="qHwJE431IndDQTTvveK_">
    <mxGraphModel dx="819" dy="441" grid="1" gridSize="10" guides="1" tooltips="1" connect="1" arrows="1" fold="1" page="1" pageScale="1" pageWidth="827" pageHeight="1169" math="0" shadow="0">
      <root>
        <mxCell id="0" />
        <mxCell id="1" parent="0" />
        <mxCell id="_cWV2iCjk7W1l3VMi-_I-7" style="rounded=0;orthogonalLoop=1;jettySize=auto;html=1;endArrow=none;endFill=0;" edge="1" parent="1" source="_cWV2iCjk7W1l3VMi-_I-1" target="_cWV2iCjk7W1l3VMi-_I-2">
          <mxGeometry relative="1" as="geometry" />
        </mxCell>
        <mxCell id="_cWV2iCjk7W1l3VMi-_I-8" style="rounded=0;orthogonalLoop=1;jettySize=auto;html=1;endArrow=none;endFill=0;" edge="1" parent="1" source="_cWV2iCjk7W1l3VMi-_I-1" target="_cWV2iCjk7W1l3VMi-_I-3">
          <mxGeometry relative="1" as="geometry" />
        </mxCell>
        <mxCell id="_cWV2iCjk7W1l3VMi-_I-9" style="rounded=0;orthogonalLoop=1;jettySize=auto;html=1;endArrow=none;endFill=0;" edge="1" parent="1" source="_cWV2iCjk7W1l3VMi-_I-1" target="_cWV2iCjk7W1l3VMi-_I-4">
          <mxGeometry relative="1" as="geometry" />
        </mxCell>
        <mxCell id="_cWV2iCjk7W1l3VMi-_I-11" style="rounded=0;orthogonalLoop=1;jettySize=auto;html=1;endArrow=none;endFill=0;" edge="1" parent="1" source="_cWV2iCjk7W1l3VMi-_I-1" target="_cWV2iCjk7W1l3VMi-_I-6">
          <mxGeometry relative="1" as="geometry" />
        </mxCell>
        <mxCell id="_cWV2iCjk7W1l3VMi-_I-1" value="Usuário" style="shape=umlActor;html=1;verticalLabelPosition=bottom;verticalAlign=top;align=center;" vertex="1" parent="1">
          <mxGeometry x="80" y="260" width="30" height="60" as="geometry" />
        </mxCell>
        <mxCell id="_cWV2iCjk7W1l3VMi-_I-2" value="Cadastrar Funcionário" style="ellipse;whiteSpace=wrap;html=1;" vertex="1" parent="1">
          <mxGeometry x="120" y="170" width="140" height="70" as="geometry" />
        </mxCell>
        <mxCell id="_cWV2iCjk7W1l3VMi-_I-3" value="Consultar Funcionário" style="ellipse;whiteSpace=wrap;html=1;" vertex="1" parent="1">
          <mxGeometry x="240" y="240" width="140" height="70" as="geometry" />
        </mxCell>
        <mxCell id="_cWV2iCjk7W1l3VMi-_I-4" value="Atualizar Funcionário" style="ellipse;whiteSpace=wrap;html=1;" vertex="1" parent="1">
          <mxGeometry x="240" y="320" width="140" height="70" as="geometry" />
        </mxCell>
        <mxCell id="_cWV2iCjk7W1l3VMi-_I-5" value="Solicitar Confirmação de Exclusão" style="ellipse;whiteSpace=wrap;html=1;" vertex="1" parent="1">
          <mxGeometry x="240" y="400" width="140" height="70" as="geometry" />
        </mxCell>
        <mxCell id="_cWV2iCjk7W1l3VMi-_I-6" value="Deletar Funcionário" style="ellipse;whiteSpace=wrap;html=1;" vertex="1" parent="1">
          <mxGeometry x="25" y="400" width="140" height="70" as="geometry" />
        </mxCell>
        <mxCell id="_cWV2iCjk7W1l3VMi-_I-14" value="&amp;lt;&amp;lt;include&amp;gt;&amp;gt;" style="edgeStyle=none;html=1;endArrow=open;verticalAlign=bottom;dashed=1;labelBackgroundColor=none;rounded=0;" edge="1" parent="1" source="_cWV2iCjk7W1l3VMi-_I-6" target="_cWV2iCjk7W1l3VMi-_I-5">
          <mxGeometry width="160" relative="1" as="geometry">
            <mxPoint x="165" y="414.71" as="sourcePoint" />
            <mxPoint x="325" y="414.71" as="targetPoint" />
          </mxGeometry>
        </mxCell>
      </root>
    </mxGraphModel>
  </diagram>
</mxfile>
